# xmcd
#
# Track frame offsets:
#	150
#	23114
#	60981
#	79592
#	108846
#	146656
#	177936
#	198844
#	214971
#	246202
#	262834
#	282706
#	303205
#
# Disc length: 4762 seconds
#
# Revision: 2
# Processed by: cddbd v1.5.2PL0 Copyright (c) Steve Scherf et al.
# Submitted via: audiograbber 1.83.01
#
DISCID=b012980d
DTITLE=Dire Straits - Brothers In Arms and Bonus
DYEAR=1985
DGENRE=Rock
TTITLE0=So far away
TTITLE1=Money for nothing
TTITLE2=Walk of life
TTITLE3=Your latest trick
TTITLE4=Why worry
TTITLE5=Ride across the river
TTITLE6=The man's too strong
TTITLE7=One world
TTITLE8=Brothers in arms
TTITLE9=Love over gold
TTITLE10=Local hero
TTITLE11=Portabello Belle
TTITLE12=Telegraph road
EXTD=
EXTT0=
EXTT1=
EXTT2=
EXTT3=
EXTT4=
EXTT5=
EXTT6=
EXTT7=
EXTT8=
EXTT9=
EXTT10=
EXTT11=
EXTT12=
PLAYORDER=
